<?xml version="1.0" encoding="utf-8"?>
<!-- Generator: Adobe Illustrator 27.0.1, SVG Export Plug-In . SVG Version: 6.00 Build 0)  -->
<svg version="1.1" id="Layer_1" xmlns="http://www.w3.org/2000/svg" xmlns:xlink="http://www.w3.org/1999/xlink" x="0px" y="0px"
	 viewBox="0 0 191 185" style="enable-background:new 0 0 191 185;" xml:space="preserve">
<style type="text/css">
	.st0{fill:#61B9DC;}
	.st1{fill:url(#SVGID_1_);}
</style>
<path class="st0" d="M34,128.9"/>
<path class="st0" d="M49.7,127.2"/>
<path class="st0" d="M73.6,115"/>
<path class="st0" d="M27.9,127.7"/>
<path class="st0" d="M80.4,95.7"/>
<radialGradient id="SVGID_1_" cx="97.4064" cy="93.2418" r="80.7488" gradientUnits="userSpaceOnUse">
	<stop  offset="0.5223" style="stop-color:#289FCF"/>
	<stop  offset="0.7063" style="stop-color:#217BA7"/>
	<stop  offset="1" style="stop-color:#153C60"/>
</radialGradient>
<path class="st1" d="M140.8,93.1c0.9-3.9,1.7-7.8,2.4-11.6c3.4,5.5,4.6,12.3,3.5,18.7c2.7-2,3.4-5.7,3.7-9
	c1.4-14.8,0.7-29.8-2.1-44.3c6.2-0.3,10.9,5.5,13.6,11c9.7,20.5,6.1,45.2-3.4,65.8c8.3-7.6,14.1-17.4,19.9-27
	c-1.3,30.7-21.7,59.8-50.1,71.5s-63.4,5.3-85.9-15.6S10.9,97.2,20.4,68s37.1-51.6,67.6-55.2c6.5-0.8,13.6-0.6,19,3.3
	c5.9,4.3,8.2,12,8.6,19.3c0.5,8.7-2,18.7-9.7,22.7c-4.4,2.3-9.7,2.1-14.6,3.1C76.5,64,64.7,78.3,64.8,93.4c0,8.8,4.1,17.2,10.3,23.3
	c5.5,5.3,12.2,8,19.5,9.3c1.1,0.2,2.2,0.3,3.4,0.4c2.3,0.1,4.5,0,6.7-0.4c4.5-0.7,8.8-2.4,12.5-5c2.6-1.8,4.9-4,6.8-6.5
	c0.7-0.9,2-2,2.8-1.1c0.5,0.5,0.3,1.3,0.1,2c-1.3,3.7-2.5,7.3-3.8,11C132.9,118.1,137.7,105.8,140.8,93.1z"/>
</svg>
