<?xml version="1.0" encoding="utf-8"?>
<!-- Generator: Adobe Illustrator 27.0.1, SVG Export Plug-In . SVG Version: 6.00 Build 0)  -->
<svg version="1.1" id="Layer_1" xmlns="http://www.w3.org/2000/svg" xmlns:xlink="http://www.w3.org/1999/xlink" x="0px" y="0px"
	 viewBox="0 0 966.5 206.6" style="enable-background:new 0 0 966.5 206.6;" xml:space="preserve">
<style type="text/css">
	.st0{fill:#27A0D0;}
	.st1{fill:#11395E;}
	.st2{fill:#143C60;}
	.st3{fill:#28A0D0;}
	.st4{fill:#123B5F;}
	.st5{fill:#153D61;}
	.st6{fill:#153C60;}
	.st7{fill:#61B9DC;}
	.st8{fill:#FFFFFF;}
	.st9{fill:url(#SVGID_1_);}
</style>
<path class="st0" d="M856.5,122.3c0,7.2,0.3,13.8-0.1,20.5c-0.3,4.2,1,6.2,5.1,6.6c0.8,0.1,1.6,0.4,1.9,1.3
	c-6.4,3.3-18.7,1-22.9-4.5c-1.4-1.8-2.3-3.3-4.1-0.5c-7.5,11.3-28.6,11.1-36.4-4c-6.9-13.3-6.9-27.1-0.8-40.4
	c5.5-12,20.8-16.7,32.9-11.3c1.3,0.6,2.6,1.2,4.4,2c0-7.3-0.1-14.1,0-20.9c0-2.1-0.9-2.8-2.7-3.4c-1.5-0.5-3.4,0-4.9-3
	c8.1,0.1,15.8-1.5,23.1,1.7c3.8,1.7,4.4,5.6,4.4,9.4C856.5,91.1,856.5,106.4,856.5,122.3z"/>
<path class="st1" d="M305.5,119.4c1.4-16.4,8.1-25.9,20.6-29.8c14.9-4.6,30.5-0.7,38.8,9.8c14.8,18.7,5.2,49-17.8,53.4
	C324.2,157,305.6,147.3,305.5,119.4z"/>
<path class="st0" d="M719.5,124.9c-0.6-9.3,0.4-17.8,5.9-25.1c8.5-11.2,25.6-15.2,40.4-9.7c13,4.9,20.3,17.3,19.3,32.8
	c-1.4,19.8-12.8,30.5-32.7,30.6C732.9,153.4,722.2,144.3,719.5,124.9z"/>
<path class="st2" d="M246.3,67.2c4.1,2.8,6.6,6.5,8.4,10.7c6.5,15.1,13.2,30.1,19.8,45.1c0.1,0.3,0.4,0.5,0.7,1
	c1.8-0.7,1.8-2.5,2.3-4c5.5-14.9,10.8-30,16.6-44.8c1.6-4.2,0.9-5.9-3.3-7c-1.6-0.4-3.6-0.7-4.7-3.1c8,0,15.5,0,23.4,0
	c-1.3,3-4.1,3-6.2,3.7c-2.8,0.9-4.2,2.5-5.2,5.3c-9.1,25-18.3,49.9-27.5,74.8c-0.6,1.7-0.4,4.2-3.3,4.3c-2.9,0.1-2.9-2.4-3.7-4
	c-10.4-23.5-20.8-47.1-31.2-70.6c-2.3-5.1-3.1-11.5-10.7-12.7C230.1,64.8,238.1,63.4,246.3,67.2z"/>
<path class="st3" d="M666,136.4c4.7,10.1,12.1,14.9,20.7,13.8c10.4-1.3,19-9.4,20.7-19.4c0.3-1.5-0.2-4,2.4-3.5
	c2.5,0.5,1.1,2.7,0.8,4.1c-2.3,12.3-13.7,21.7-26.2,22c-14.4,0.3-27-3.2-36-15.4c-11.8-16-10.7-47.3,2.1-62.4
	c11.4-13.5,31.2-16.5,46-6.7c2,1.3,3.3,2,4.7-0.5c0.7-1.1,1.8-2,2.8-2.8c1.2-0.9,2.6-1.7,4.2-1.1c1.9,0.8,1,2.6,1,3.9
	c0.1,5.3,0.1,10.7,0,16c0,1.3,0.7,3.2-1.7,3.5c-2,0.3-3.6-0.1-4.2-2.4c-1.3-4.4-3.7-8.2-6.5-11.7c-9-11.3-23-9.9-29.5,3
	c-2.8,5.6-4.1,11.6-4.5,17.8C661.8,108.5,661.3,122.4,666,136.4z"/>
<path class="st4" d="M537.1,153.3c-12,0.7-22.3-1.7-29.8-11.4c-10.5-13.6-9.5-46.7,15.6-53.1c13.6-3.4,28.5,1.5,34.9,12
	c1,1.7,1.9,3.5,2.5,5.4c3.1,10.3,1.1,13.5-9.2,15.4c-8.2,1.4-16.5,2.2-24.8,2.1c-3.4-0.1-4.4,1.1-4,4.3c0.5,3.3,0.6,6.7,1.3,9.9
	c1.8,8,6.4,12.4,12.7,12.6c8.1,0.2,15.5-4.7,18-11.7c0.6-1.6-0.3-5.2,2.7-4.1c2.7,0.9,0.6,3.9,0,5.5
	C553.4,148.5,546.7,152.7,537.1,153.3z"/>
<path class="st3" d="M932.1,115.7c-0.3,3.3-1.8,4.5-4.8,5c-9.9,1.7-19.8,2.9-29.8,2.9c-3.6,0-4.8,1.3-4.2,4.7
	c0.5,3.1,0.6,6.3,1.3,9.4c1.8,8,6.3,12.4,12.7,12.6c8.1,0.2,15.6-4.7,17.9-11.7c0.3-0.8,0.3-1.6,0.5-2.5c0.2-1.3,0.9-2.2,2.4-1.8
	c1.5,0.4,0.9,1.5,0.7,2.4c-1,6.2-4.7,10.6-10,13.6c-10.1,5.7-31.7,4-40.7-8.7c-13.1-18.3-4.8-47.3,15.7-52.9
	c13.1-3.6,28.1,1.1,34.5,10.8C931.3,104.5,932.7,109.6,932.1,115.7z"/>
<path class="st5" d="M585.5,89.9c5.1,0.6,8.3,3.6,10.9,7.1c2.9,4,5.6,8.2,8.8,13c3.5-4.4,6.8-8.7,10.1-13c2.1-2.6-0.7-2.4-1.8-3.1
	c-1.9-1.3-6.2-0.9-5.5-3.7c0.5-2.2,4.4-0.7,6.7-0.9c4.7-0.2,9.3-0.1,14,0c0.9,0,2.2-0.3,2.3,1.2c0,0.9-0.8,1.4-1.7,1.6
	c-10.8,2.1-14.3,12.2-20.7,19c-1.4,1.5-1.2,2.8-0.1,4.4c6.5,10.1,13.1,20.1,19.3,30.3c1.9,3.1,5.8,2.2,7.7,4.9
	c-14,4.7-27.2,0.3-34.7-11.3c-1.4-2.2-3-4.4-4.2-6.8c-1.3-2.4-2.3-3.4-4.4-0.5c-3.3,4.6-6.9,9-10.4,13.5c2.3,2,5,2.4,7.4,3.5
	c0.6,0.3,1.2,0.6,1.2,1.4c0,0.9-0.7,1.1-1.3,1.1c-7.2,0-14.5,0-22.8,0c1.3-1.4,1.7-2.2,2.2-2.3c12-2.7,15.7-14.1,22.9-21.7
	c1.3-1.4,0.3-2.4-0.4-3.5c-6.1-9.7-12.3-19.4-18.4-29.1c-1.3-2.2-3.4-2.5-5.4-3c-1-0.3-2-0.6-1.7-2c0.3-1.1,1.3-0.8,2.1-0.8
	C573.4,89.6,579.3,88.9,585.5,89.9z"/>
<path class="st6" d="M449.6,93c-1.8-0.1-3.1-0.1-4.5-0.2c-1.3,0-2.9,0.3-2.8-1.8c0.1-2.1,1.9-1.7,3-1.5c4.8,0.8,5.7-1.4,5.6-5.7
	c-0.1-8.2,3.4-11.3,11.7-11.5c1.7,0,3.3,0.1,5,0c2.3-0.2,3.3,0.6,3.2,3c-0.2,3.5,0.1,7-0.1,10.5c-0.2,2.8,0.7,3.9,3.6,3.7
	c3.8-0.2,7.7-0.1,11.5,0c1.2,0,2.4-0.1,2.4,1.7c0,1.7-1.3,1.7-2.4,1.7c-3.8,0-7.7,0.1-11.5,0c-2.4-0.1-3.7,0.5-3.6,3.3
	c0.3,14.2-0.5,28.3,0.6,42.5c0.1,1.8,0.6,3.6,1.1,5.4c0.9,3.2,2.7,5.8,6.3,6.3c3.8,0.6,6.9-0.8,9.1-3.9c1.9-2.6,2.8-5.6,3.4-8.8
	c0.2-1.2-0.7-3.6,1.8-3.2c2.8,0.4,1.4,2.7,1.1,4c-2.9,14.9-11.5,17.1-24.9,14.4c-12-2.4-18.1-10.7-18.3-23.4c-0.2-11,0-22-0.1-33
	C450.8,95.2,451.1,94,449.6,93z"/>
<path class="st6" d="M389.3,89.4c7.9-0.3,13.9,2,17.4,9.3c5.8-7.3,13-10.6,22.1-9.3c6.3,0.9,10.3,6.2,9.4,12.5
	c-0.8,5.7-5.1,8.9-11,8.3c-2.1-0.2-3.3-0.9-3.2-3.4c0.2-3.8-0.1-7.7,0.1-11.5c0.2-3-1.3-3.3-3.7-2.8c-6.8,1.4-12,7.8-12,14.9
	c0,11.5,0.2,23-0.1,34.5c-0.1,4.3,0.4,7.5,5.6,7.6c0.9,0,1.6,0.5,1.9,1.4c-3.4,1.2-28.9,1.4-34.4,0.3c0.2-0.4,0.4-1.1,0.6-1.2
	c6.6-0.4,6.8-4.7,6.6-10c-0.3-14.1-0.2-28.3,0-42.5c0-3.2-0.7-5.1-4.1-5.3c-1.2-0.1-3.2-0.1-3-1.8c0.2-1.8,2.2-0.9,3.3-1
	C386.2,89.3,387.5,89.4,389.3,89.4z"/>
<path class="st7" d="M52.4,141.2"/>
<path class="st7" d="M68.1,139.5"/>
<path class="st7" d="M92,127.3"/>
<path class="st7" d="M46.3,140"/>
<path class="st7" d="M98.8,108"/>
<path class="st8" d="M836.6,118.3c0,6.2,0,11.8,0,17.5c0,1.2,0.1,2.4-0.2,3.5c-1,4.5-6.4,10.1-10.1,9.9c-5.7-0.2-7.5-4.8-8.3-9.2
	c-2.5-13.3-2.9-26.8,0.5-40.1c2.1-8.3,8.8-10.6,15.2-6c2.1,1.5,3,3.2,3,5.8C836.4,105.8,836.6,111.8,836.6,118.3z"/>
<path class="st8" d="M340.6,150.7c-6,0.3-9-1.7-11.2-8c-3.4-9.9-3.3-20.2-2.5-30.6c0.4-5.1,0.9-10.3,3.2-15c1.8-3.6,4.1-6.8,8.5-6.7
	c4.2,0.1,6.5,3.2,7.9,6.7c4.3,10.3,4,21.1,3.4,31.9c-0.3,4.6-0.7,9.3-2.5,13.6C346,145.9,344.4,148.9,340.6,150.7z"/>
<path class="st8" d="M759.5,95.3c5.1,10.3,4.9,21,4.4,31.6c-0.2,5.6-0.6,11.3-3.1,16.6c-1.7,3.7-3.8,7.4-8.5,7.4
	c-4.9,0-7.4-3.7-8.8-7.7c-3.7-10.4-3.5-21.3-2.6-32.1c0.4-5,1-10,3.3-14.5C748.2,89,753.7,88.4,759.5,95.3z"/>
<path class="st8" d="M538.7,96.3c2.5,6.6,2.3,13.1,1.7,19.6c-0.2,2.8-1.4,4.2-4.3,4.2c-3.7,0-7.3,0.2-11,0.5
	c-1.8,0.1-2.8-0.2-2.8-2.3c0-7,0.4-14,2.4-20.8c1-3.2,2.4-6.6,6.3-7.1C535,89.9,536.9,92.9,538.7,96.3z"/>
<path class="st8" d="M910.6,99.4c1.5,5.8,1.1,11.2,0.7,16.7c-0.1,1.6-0.5,3.6-2.6,3.7c-4.5,0.4-8.9,0.5-13.4,0.6
	c-1.9,0.1-1.9-1.3-2-2.7c-0.1-6.1,0.2-12.3,1.8-18.2c1.1-4,2.1-8.8,7.1-9C907.5,90.2,909.2,94.8,910.6,99.4z"/>
<radialGradient id="SVGID_1_" cx="115.7953" cy="105.4983" r="80.7488" gradientUnits="userSpaceOnUse">
	<stop  offset="0.5223" style="stop-color:#289FCF"/>
	<stop  offset="0.7063" style="stop-color:#217BA7"/>
	<stop  offset="1" style="stop-color:#153C60"/>
</radialGradient>
<path class="st9" d="M159.2,105.4c0.9-3.9,1.7-7.8,2.4-11.6c3.4,5.5,4.6,12.3,3.5,18.7c2.7-2,3.4-5.7,3.7-9
	c1.4-14.8,0.7-29.8-2.1-44.3c6.2-0.3,10.9,5.5,13.6,11c9.7,20.5,6.1,45.2-3.4,65.8c8.3-7.6,14.1-17.4,19.9-27
	c-1.3,30.7-21.7,59.8-50.1,71.5c-28.4,11.7-63.4,5.3-85.9-15.6s-31.4-55.3-21.8-84.5s37.1-51.6,67.6-55.2c6.5-0.8,13.6-0.6,19,3.3
	c5.9,4.3,8.2,12,8.6,19.3c0.5,8.7-2,18.7-9.7,22.7c-4.4,2.3-9.7,2.1-14.6,3.1c-14.8,2.8-26.6,17.1-26.6,32.2
	c0,8.8,4.1,17.2,10.3,23.3c5.5,5.3,12.2,8,19.5,9.3c1.1,0.2,2.2,0.3,3.4,0.4c2.3,0.1,4.5,0,6.7-0.4c4.5-0.7,8.8-2.4,12.5-5
	c2.6-1.8,4.9-4,6.8-6.5c0.7-0.9,2-2,2.8-1.1c0.5,0.5,0.3,1.3,0.1,2c-1.3,3.7-2.5,7.3-3.8,11C151.3,130.3,156.1,118.1,159.2,105.4z"
	/>
</svg>
